<svg xmlns="http://www.w3.org/2000/svg" xmlns:xlink="http://www.w3.org/1999/xlink" width="220" zoomAndPan="magnify" viewBox="0 0 165 82.499998" height="110" preserveAspectRatio="xMidYMid meet" version="1.0"><defs><clipPath id="61a9396bc1"><path d="M 0.496094 0 L 164.503906 0 L 164.503906 82.003906 L 0.496094 82.003906 Z M 0.496094 0 " clip-rule="nonzero"/></clipPath><clipPath id="9a02b94789"><path d="M 142 32 L 156.300781 32 L 156.300781 49 L 142 49 Z M 142 32 " clip-rule="nonzero"/></clipPath><clipPath id="e073db197d"><path d="M 8.699219 22.273438 L 44 22.273438 L 44 59.546875 L 8.699219 59.546875 Z M 8.699219 22.273438 " clip-rule="nonzero"/></clipPath></defs><g clip-path="url(#61a9396bc1)"><path fill="#ffffff" d="M 0.496094 0 L 164.503906 0 L 164.503906 82.003906 L 0.496094 82.003906 Z M 0.496094 0 " fill-opacity="1" fill-rule="nonzero"/></g><path fill="#632ca6" d="M 56.8125 48.808594 L 49.917969 48.808594 L 49.917969 33.015625 L 56.8125 33.015625 C 61.777344 33.015625 64.261719 35.503906 64.261719 40.480469 C 64.261719 46.03125 61.777344 48.808594 56.8125 48.808594 Z M 52.863281 46.265625 L 56.367188 46.265625 C 59.664062 46.265625 61.3125 44.339844 61.3125 40.480469 C 61.3125 37.195312 59.664062 35.550781 56.367188 35.550781 L 52.863281 35.550781 Z M 52.863281 46.265625 " fill-opacity="1" fill-rule="evenodd"/><path fill="#632ca6" d="M 67.347656 48.808594 L 64.320312 48.808594 L 71.074219 33.015625 L 74.242188 33.015625 L 81.136719 48.808594 L 77.96875 48.808594 L 75.964844 44.503906 L 70.875 44.503906 L 71.886719 41.960938 L 75.1875 41.960938 L 72.585938 36.027344 Z M 67.347656 48.808594 " fill-opacity="1" fill-rule="evenodd"/><path fill="#632ca6" d="M 79.472656 33.015625 L 91.535156 33.015625 L 91.535156 35.554688 L 86.980469 35.554688 L 86.980469 48.808594 L 84.035156 48.808594 L 84.035156 35.554688 L 79.472656 35.554688 Z M 79.472656 33.015625 " fill-opacity="1" fill-rule="evenodd"/><path fill="#632ca6" d="M 93.050781 48.808594 L 90.023438 48.808594 L 96.777344 33.015625 L 99.945312 33.015625 L 106.839844 48.808594 L 103.667969 48.808594 L 101.664062 44.503906 L 96.574219 44.503906 L 97.585938 41.960938 L 100.886719 41.960938 L 98.289062 36.027344 Z M 93.050781 48.808594 " fill-opacity="1" fill-rule="evenodd"/><path fill="#632ca6" d="M 115.6875 48.808594 L 108.792969 48.808594 L 108.792969 33.015625 L 115.6875 33.015625 C 120.65625 33.015625 123.140625 35.503906 123.140625 40.480469 C 123.140625 46.03125 120.65625 48.808594 115.6875 48.808594 Z M 111.742188 46.265625 L 115.242188 46.265625 C 118.539062 46.265625 120.195312 44.339844 120.195312 40.480469 C 120.195312 37.195312 118.542969 35.550781 115.242188 35.550781 L 111.742188 35.550781 Z M 111.742188 46.265625 " fill-opacity="1" fill-rule="evenodd"/><path fill="#632ca6" d="M 125.136719 40.933594 C 125.136719 35.578125 127.796875 32.902344 133.121094 32.902344 C 138.363281 32.902344 140.980469 35.578125 140.980469 40.933594 C 140.980469 46.257812 138.359375 48.921875 133.121094 48.921875 C 128.035156 48.921875 125.371094 46.257812 125.136719 40.933594 Z M 133.121094 46.375 C 136.320312 46.375 137.921875 44.539062 137.921875 40.863281 C 137.921875 37.246094 136.320312 35.4375 133.121094 35.4375 C 129.835938 35.4375 128.195312 37.246094 128.195312 40.863281 C 128.195312 44.539062 129.835938 46.375 133.121094 46.375 Z M 133.121094 46.375 " fill-opacity="1" fill-rule="evenodd"/><g clip-path="url(#9a02b94789)"><path fill="#632ca6" d="M 153.273438 42.417969 L 153.273438 46.117188 C 152.59375 46.292969 151.988281 46.378906 151.449219 46.378906 C 147.847656 46.378906 146.046875 44.484375 146.046875 40.691406 C 146.046875 37.191406 147.957031 35.441406 151.773438 35.441406 C 153.367188 35.441406 154.851562 35.738281 156.222656 36.324219 L 156.222656 33.671875 C 154.851562 33.160156 153.292969 32.902344 151.550781 32.902344 C 145.84375 32.902344 142.988281 35.496094 142.988281 40.691406 C 142.988281 46.175781 145.792969 48.921875 151.40625 48.921875 C 153.335938 48.921875 154.9375 48.644531 156.222656 48.082031 L 156.222656 39.820312 L 151.464844 39.820312 L 150.46875 42.417969 Z M 153.273438 42.417969 " fill-opacity="1" fill-rule="evenodd"/></g><g clip-path="url(#e073db197d)"><path fill="#632ca6" d="M 38.011719 48.71875 L 34.902344 46.679688 L 32.308594 50.992188 L 29.296875 50.113281 L 26.640625 54.148438 L 26.777344 55.417969 L 41.210938 52.769531 L 40.375 43.792969 Z M 24.550781 44.851562 L 26.867188 44.535156 C 27.238281 44.699219 27.5 44.765625 27.953125 44.878906 C 28.652344 45.058594 29.460938 45.234375 30.660156 44.632812 C 30.9375 44.496094 31.519531 43.964844 31.753906 43.664062 L 41.246094 41.949219 L 42.214844 53.613281 L 25.957031 56.527344 Z M 42.175781 40.648438 L 41.238281 40.824219 L 39.441406 22.320312 L 8.777344 25.859375 L 12.554688 56.371094 L 16.144531 55.851562 C 15.859375 55.445312 15.410156 54.949219 14.648438 54.320312 C 13.59375 53.445312 13.964844 51.960938 14.589844 51.023438 C 15.414062 49.441406 19.667969 47.425781 19.425781 44.894531 C 19.339844 43.972656 19.191406 42.777344 18.332031 41.953125 C 18.300781 42.296875 18.359375 42.625 18.359375 42.625 C 18.359375 42.625 18.007812 42.175781 17.828125 41.566406 C 17.65625 41.332031 17.519531 41.257812 17.332031 40.941406 C 17.199219 41.304688 17.21875 41.726562 17.21875 41.726562 C 17.21875 41.726562 16.929688 41.046875 16.882812 40.472656 C 16.710938 40.730469 16.667969 41.214844 16.667969 41.214844 C 16.667969 41.214844 16.292969 40.148438 16.378906 39.570312 C 16.207031 39.070312 15.699219 38.074219 15.84375 35.816406 C 16.78125 36.46875 18.839844 36.3125 19.644531 35.136719 C 19.910156 34.746094 20.09375 33.679688 19.511719 31.582031 C 19.136719 30.238281 18.210938 28.234375 17.851562 27.476562 L 17.808594 27.507812 C 17.996094 28.117188 18.390625 29.402344 18.539062 30.023438 C 18.996094 31.914062 19.117188 32.570312 18.902344 33.4375 C 18.722656 34.195312 18.285156 34.691406 17.179688 35.242188 C 16.074219 35.800781 14.609375 34.449219 14.515625 34.375 C 13.4375 33.523438 12.609375 32.132812 12.515625 31.457031 C 12.421875 30.71875 12.945312 30.273438 13.207031 29.671875 C 12.832031 29.777344 12.410156 29.96875 12.410156 29.96875 C 12.410156 29.96875 12.914062 29.449219 13.535156 29.003906 C 13.792969 28.835938 13.941406 28.726562 14.210938 28.503906 C 13.820312 28.496094 13.5 28.503906 13.5 28.503906 C 13.5 28.503906 14.15625 28.152344 14.832031 27.898438 C 14.335938 27.875 13.863281 27.894531 13.863281 27.894531 C 13.863281 27.894531 15.320312 27.246094 16.472656 26.769531 C 17.265625 26.445312 18.039062 26.539062 18.472656 27.167969 C 19.046875 27.988281 19.644531 28.433594 20.917969 28.710938 C 21.699219 28.363281 21.933594 28.1875 22.914062 27.921875 C 23.777344 26.976562 24.457031 26.855469 24.457031 26.855469 C 24.457031 26.855469 24.121094 27.160156 24.03125 27.644531 C 24.519531 27.261719 25.054688 26.9375 25.054688 26.9375 C 25.054688 26.9375 24.847656 27.195312 24.652344 27.597656 L 24.699219 27.664062 C 25.269531 27.324219 25.941406 27.054688 25.941406 27.054688 C 25.941406 27.054688 25.75 27.296875 25.523438 27.609375 C 25.957031 27.605469 26.828125 27.628906 27.167969 27.667969 C 29.167969 27.710938 29.582031 25.539062 30.351562 25.269531 C 31.3125 24.925781 31.742188 24.71875 33.382812 26.320312 C 34.789062 27.695312 35.886719 30.15625 35.339844 30.707031 C 34.882812 31.164062 33.980469 30.53125 32.980469 29.289062 C 32.453125 28.632812 32.054688 27.855469 31.867188 26.871094 C 31.707031 26.035156 31.09375 25.554688 31.09375 25.554688 C 31.09375 25.554688 31.449219 26.34375 31.449219 27.042969 C 31.449219 27.421875 31.496094 28.847656 32.109375 29.644531 C 32.050781 29.761719 32.023438 30.222656 31.953125 30.3125 C 31.242188 29.453125 29.707031 28.835938 29.460938 28.65625 C 30.304688 29.347656 32.25 30.929688 32.996094 32.449219 C 33.703125 33.886719 33.285156 35.203125 33.644531 35.542969 C 33.742188 35.640625 35.160156 37.398438 35.433594 38.285156 C 35.910156 39.824219 35.460938 41.441406 34.839844 42.445312 L 33.101562 42.714844 C 32.847656 42.644531 32.675781 42.605469 32.449219 42.476562 C 32.574219 42.253906 32.824219 41.703125 32.828125 41.589844 L 32.730469 41.417969 C 32.1875 42.179688 31.28125 42.921875 30.527344 43.347656 C 29.542969 43.902344 28.40625 43.816406 27.667969 43.589844 C 25.566406 42.945312 23.582031 41.535156 23.105469 41.164062 C 23.105469 41.164062 23.089844 41.457031 23.179688 41.527344 C 23.710938 42.121094 24.921875 43.195312 26.09375 43.945312 L 23.597656 44.21875 L 24.78125 53.371094 C 24.257812 53.445312 24.175781 53.480469 23.601562 53.5625 C 23.097656 51.785156 22.132812 50.625 21.074219 49.949219 C 20.144531 49.355469 18.859375 49.21875 17.628906 49.460938 L 17.550781 49.554688 C 18.40625 49.464844 19.414062 49.589844 20.449219 50.242188 C 21.46875 50.882812 22.289062 52.535156 22.589844 53.53125 C 22.976562 54.804688 23.246094 56.167969 22.203125 57.609375 C 21.460938 58.636719 19.300781 59.203125 17.554688 57.976562 C 18.019531 58.722656 18.652344 59.335938 19.5 59.449219 C 20.761719 59.621094 21.957031 59.402344 22.777344 58.5625 C 23.480469 57.84375 23.855469 56.335938 23.753906 54.753906 L 24.867188 54.59375 L 25.269531 57.4375 L 43.675781 55.230469 Z M 30.976562 32.929688 C 30.925781 33.046875 30.84375 33.121094 30.964844 33.5 L 30.972656 33.523438 L 30.992188 33.574219 L 31.039062 33.6875 C 31.257812 34.128906 31.5 34.550781 31.898438 34.765625 C 32.003906 34.75 32.109375 34.734375 32.222656 34.730469 C 32.597656 34.714844 32.835938 34.773438 32.988281 34.855469 C 33 34.78125 33.003906 34.671875 32.992188 34.511719 C 32.964844 33.945312 33.105469 32.988281 32.019531 32.484375 C 31.609375 32.296875 31.03125 32.351562 30.839844 32.589844 C 30.875 32.59375 30.90625 32.601562 30.929688 32.609375 C 31.226562 32.710938 31.03125 32.808594 30.976562 32.929688 M 34.023438 38.183594 C 33.882812 38.105469 33.214844 38.136719 32.746094 38.191406 C 31.855469 38.296875 30.890625 38.605469 30.679688 38.765625 C 30.296875 39.0625 30.46875 39.578125 30.753906 39.789062 C 31.550781 40.378906 32.246094 40.777344 32.980469 40.679688 C 33.433594 40.621094 33.832031 39.910156 34.113281 39.261719 C 34.308594 38.820312 34.308594 38.339844 34.023438 38.183594 M 26.125 33.625 C 26.375 33.386719 24.871094 33.074219 23.703125 33.867188 C 22.839844 34.453125 22.8125 35.707031 23.636719 36.417969 C 23.71875 36.488281 23.789062 36.539062 23.851562 36.578125 C 24.09375 36.464844 24.367188 36.351562 24.683594 36.25 C 25.214844 36.078125 25.660156 35.988281 26.023438 35.941406 C 26.199219 35.75 26.402344 35.40625 26.351562 34.789062 C 26.28125 33.945312 25.640625 34.082031 26.125 33.625 " fill-opacity="1" fill-rule="evenodd"/></g></svg>