<svg xmlns="http://www.w3.org/2000/svg" xmlns:xlink="http://www.w3.org/1999/xlink" width="220" zoomAndPan="magnify" viewBox="0 0 165 82.499998" height="110" preserveAspectRatio="xMidYMid meet" version="1.0"><defs><clipPath id="dd513ca7ff"><path d="M 0.496094 0 L 164.503906 0 L 164.503906 82.003906 L 0.496094 82.003906 Z M 0.496094 0 " clip-rule="nonzero"/></clipPath></defs><g clip-path="url(#dd513ca7ff)"><path fill="#ffffff" d="M 0.496094 0 L 164.503906 0 L 164.503906 82.003906 L 0.496094 82.003906 Z M 0.496094 0 " fill-opacity="1" fill-rule="nonzero"/></g><path fill="#fc0058" d="M 13.636719 41.894531 C 13.636719 32.925781 20.910156 25.65625 29.886719 25.65625 C 38.859375 25.65625 46.136719 32.925781 46.136719 41.894531 C 46.136719 50.863281 38.859375 58.132812 29.886719 58.132812 C 20.910156 58.132812 13.636719 50.863281 13.636719 41.894531 M 18.4375 41.894531 C 18.4375 35.574219 23.5625 30.453125 29.886719 30.453125 C 36.210938 30.453125 41.335938 35.574219 41.335938 41.894531 C 41.335938 48.210938 36.210938 53.335938 29.886719 53.335938 C 23.5625 53.335938 18.4375 48.210938 18.4375 41.894531 " fill-opacity="1" fill-rule="evenodd"/><path fill="#fc0058" d="M 23.101562 41.894531 C 23.101562 38.148438 26.140625 35.113281 29.886719 35.113281 C 33.632812 35.113281 36.667969 38.148438 36.667969 41.894531 C 36.667969 45.636719 33.632812 48.671875 29.886719 48.671875 C 26.140625 48.671875 23.101562 45.636719 23.101562 41.894531 M 27.035156 41.890625 C 27.035156 40.320312 28.3125 39.042969 29.886719 39.042969 C 31.460938 39.042969 32.738281 40.320312 32.738281 41.890625 C 32.738281 43.464844 31.460938 44.742188 29.886719 44.742188 C 28.3125 44.742188 27.035156 43.464844 27.035156 41.890625 " fill-opacity="1" fill-rule="evenodd"/><path fill="#fc0058" d="M 12.816406 56.03125 L 16.503906 49.046875 L 20.8125 54.535156 L 13.828125 57.460938 C 13.71875 57.496094 13.605469 57.511719 13.488281 57.496094 C 12.992188 57.445312 12.640625 56.941406 12.699219 56.371094 C 12.714844 56.25 12.738281 56.132812 12.816406 56.03125 " fill-opacity="1" fill-rule="evenodd"/><path fill="#101b4a" d="M 74.394531 38.429688 C 76.097656 38.429688 76.789062 40.253906 76.789062 42.03125 C 76.789062 44.226562 75.875 45.679688 74.394531 45.679688 C 72.792969 45.679688 71.929688 44.125 71.929688 42.054688 C 71.929688 40.277344 72.621094 38.429688 74.394531 38.429688 M 74.519531 35.742188 C 70.621094 35.742188 68.054688 38.230469 68.054688 42.152344 C 68.054688 46.050781 70.769531 48.367188 74.296875 48.367188 C 77.53125 48.367188 80.664062 46.34375 80.664062 41.929688 C 80.664062 38.28125 78.195312 35.742188 74.519531 35.742188 " fill-opacity="1" fill-rule="evenodd"/><path fill="#101b4a" d="M 81.414062 47.503906 C 82.328125 48 83.734375 48.367188 85.3125 48.367188 C 88.769531 48.367188 90.519531 46.714844 90.519531 44.445312 C 90.496094 42.695312 89.558594 41.511719 87.261719 40.722656 C 85.78125 40.203125 85.3125 39.910156 85.3125 39.316406 C 85.3125 38.726562 85.832031 38.355469 86.746094 38.355469 C 87.757812 38.355469 88.816406 38.75 89.359375 39.046875 L 90.003906 36.457031 C 89.261719 36.085938 88.027344 35.742188 86.621094 35.742188 C 83.636719 35.742188 81.710938 37.441406 81.710938 39.710938 C 81.6875 41.140625 82.648438 42.5 85.164062 43.335938 C 86.546875 43.804688 86.917969 44.101562 86.917969 44.742188 C 86.917969 45.359375 86.449219 45.730469 85.3125 45.730469 C 84.203125 45.730469 82.773438 45.261719 82.082031 44.839844 Z M 81.414062 47.503906 " fill-opacity="1" fill-rule="evenodd"/><path fill="#101b4a" d="M 92.027344 33.792969 L 92.027344 43.730469 C 92.027344 45.433594 92.375 46.59375 93.066406 47.308594 C 93.683594 47.921875 94.695312 48.34375 95.902344 48.34375 C 96.941406 48.34375 97.851562 48.195312 98.320312 48.023438 L 98.296875 45.1875 C 97.953125 45.261719 97.703125 45.285156 97.1875 45.285156 C 96.074219 45.285156 95.707031 44.621094 95.707031 43.164062 L 95.707031 38.800781 L 98.394531 38.800781 L 98.394531 36.039062 L 95.707031 36.039062 L 95.707031 32.78125 Z M 92.027344 33.792969 " fill-opacity="1" fill-rule="evenodd"/><path fill="#101b4a" d="M 104.078125 41.265625 C 104.078125 41.042969 104.101562 40.796875 104.152344 40.597656 C 104.398438 39.488281 105.335938 38.699219 106.398438 38.699219 C 108.074219 38.699219 108.9375 40.15625 108.9375 42.078125 C 108.9375 44.125 107.976562 45.480469 106.347656 45.480469 C 105.261719 45.480469 104.398438 44.71875 104.152344 43.707031 C 104.101562 43.460938 104.078125 43.214844 104.078125 42.917969 Z M 100.328125 52.691406 L 104.078125 51.703125 L 104.078125 46.988281 L 104.125 46.988281 C 104.667969 47.777344 105.804688 48.367188 107.261719 48.367188 C 109.949219 48.367188 112.738281 46.296875 112.738281 41.90625 C 112.738281 38.058594 110.371094 35.765625 107.730469 35.765625 C 105.976562 35.765625 104.597656 36.457031 103.707031 37.714844 L 103.65625 37.714844 L 103.484375 36.039062 L 100.328125 36.871094 Z M 100.328125 52.691406 " fill-opacity="1" fill-rule="evenodd"/><path fill="#101b4a" d="M 116.53125 30.808594 C 115.320312 30.808594 114.53125 31.625 114.53125 32.683594 C 114.53125 33.71875 115.296875 34.558594 116.480469 34.558594 C 117.738281 34.558594 118.503906 33.71875 118.503906 32.683594 C 118.480469 31.625 117.738281 30.808594 116.53125 30.808594 M 118.382812 48.097656 L 118.382812 36.039062 L 114.628906 36.980469 L 114.628906 48.097656 Z M 118.382812 48.097656 " fill-opacity="1" fill-rule="evenodd"/><path fill="#101b4a" d="M 129.550781 45.015625 C 128.984375 45.261719 128.292969 45.410156 127.402344 45.410156 C 125.578125 45.410156 124.097656 44.222656 124.097656 42.03125 C 124.074219 40.058594 125.355469 38.652344 127.332031 38.652344 C 128.316406 38.652344 128.984375 38.824219 129.429688 39.023438 L 130.019531 36.234375 C 129.230469 35.9375 128.144531 35.765625 127.15625 35.765625 C 122.667969 35.765625 120.246094 38.652344 120.246094 42.179688 C 120.246094 45.949219 122.742188 48.34375 126.640625 48.34375 C 128.070312 48.34375 129.328125 48.097656 129.996094 47.777344 Z M 129.550781 45.015625 " fill-opacity="1" fill-rule="evenodd"/><path fill="#101b4a" d="M 135.367188 30.5625 L 131.613281 31.53125 L 131.613281 48.097656 L 135.367188 48.097656 L 135.367188 44.324219 L 136.304688 43.140625 L 139.242188 48.097656 L 143.855469 48.097656 L 138.917969 40.921875 L 144.277344 34.246094 L 137.285156 37.539062 C 136.988281 37.980469 135.6875 40.597656 135.414062 41.117188 L 135.367188 41.117188 Z M 135.367188 30.5625 " fill-opacity="1" fill-rule="evenodd"/><path fill="#101b4a" d="M 144.785156 48.097656 L 148.535156 48.097656 L 148.535156 41.980469 C 148.535156 41.683594 148.558594 41.390625 148.609375 41.140625 C 148.855469 39.984375 149.792969 39.242188 151.175781 39.242188 C 151.59375 39.242188 151.890625 39.292969 152.1875 39.34375 L 152.1875 35.816406 C 151.914062 35.765625 151.742188 35.742188 151.398438 35.742188 C 150.214844 35.742188 148.757812 36.480469 148.140625 38.257812 L 148.042969 38.257812 L 147.894531 36.039062 L 144.785156 36.792969 Z M 144.785156 48.097656 " fill-opacity="1" fill-rule="evenodd"/><path fill="#101b4a" d="M 57.984375 41.265625 C 57.984375 41.042969 58.011719 40.796875 58.058594 40.597656 C 58.308594 39.488281 59.246094 38.699219 60.304688 38.699219 C 61.984375 38.699219 62.847656 40.15625 62.847656 42.078125 C 62.847656 44.125 61.886719 45.480469 60.257812 45.480469 C 59.171875 45.480469 58.308594 44.71875 58.058594 43.707031 C 58.011719 43.460938 57.984375 43.214844 57.984375 42.917969 Z M 54.234375 52.691406 L 57.984375 51.703125 L 57.984375 46.988281 L 58.035156 46.988281 C 58.578125 47.777344 59.714844 48.367188 61.167969 48.367188 C 63.859375 48.367188 66.648438 46.296875 66.648438 41.90625 C 66.648438 38.058594 64.277344 35.765625 61.636719 35.765625 C 59.886719 35.765625 58.503906 36.457031 57.617188 37.714844 L 57.566406 37.714844 L 57.394531 36.039062 L 54.238281 36.871094 Z M 54.234375 52.691406 " fill-opacity="1" fill-rule="evenodd"/></svg>