<svg xmlns="http://www.w3.org/2000/svg" xmlns:xlink="http://www.w3.org/1999/xlink" width="220" zoomAndPan="magnify" viewBox="0 0 165 82.499998" height="110" preserveAspectRatio="xMidYMid meet" version="1.0"><defs><clipPath id="9f8c1c303a"><path d="M 0.496094 0 L 164.503906 0 L 164.503906 82.003906 L 0.496094 82.003906 Z M 0.496094 0 " clip-rule="nonzero"/></clipPath><clipPath id="3cc0f818da"><path d="M 11.457031 27.125 L 30.394531 27.125 L 30.394531 54.859375 L 11.457031 54.859375 Z M 11.457031 27.125 " clip-rule="nonzero"/></clipPath><clipPath id="91e164a634"><path d="M 29.832031 27.238281 L 18.070312 27.238281 C 17.695312 27.238281 17.34375 27.386719 17.078125 27.652344 L 11.875 32.84375 C 11.609375 33.105469 11.460938 33.472656 11.460938 33.839844 L 11.460938 54.316406 C 11.460938 54.5625 11.660156 54.761719 11.90625 54.761719 L 15.640625 54.761719 C 15.886719 54.761719 16.085938 54.5625 16.085938 54.316406 L 16.085938 35.671875 C 16.085938 35.367188 16.210938 35.066406 16.429688 34.851562 L 19.070312 32.210938 C 19.289062 31.992188 19.578125 31.871094 19.886719 31.871094 L 29.832031 31.871094 C 30.078125 31.871094 30.277344 31.667969 30.277344 31.425781 L 30.277344 27.6875 C 30.277344 27.441406 30.078125 27.238281 29.832031 27.238281 " clip-rule="nonzero"/></clipPath><clipPath id="1e1ee208db"><path d="M 31.738281 27.003906 L 59.960938 27.003906 L 59.960938 55.105469 L 31.738281 55.105469 Z M 31.738281 27.003906 " clip-rule="nonzero"/></clipPath><clipPath id="0c2ee377e6"><path d="M 54.625 45.027344 C 54.148438 46.21875 53.484375 47.257812 52.644531 48.117188 C 51.804688 48.976562 50.789062 49.648438 49.632812 50.125 C 48.472656 50.597656 47.191406 50.835938 45.820312 50.835938 C 44.453125 50.835938 43.171875 50.597656 42.011719 50.125 C 40.855469 49.648438 39.839844 48.976562 39.003906 48.117188 C 38.167969 47.261719 37.496094 46.21875 37.023438 45.027344 C 36.550781 43.832031 36.308594 42.496094 36.308594 41.054688 C 36.308594 39.613281 36.546875 38.277344 37.023438 37.082031 C 37.496094 35.890625 38.164062 34.851562 39.003906 33.992188 C 39.84375 33.132812 40.855469 32.457031 42.011719 31.984375 C 43.167969 31.515625 44.453125 31.273438 45.820312 31.273438 C 47.191406 31.273438 48.472656 31.511719 49.632812 31.984375 C 50.789062 32.460938 51.800781 33.132812 52.644531 33.992188 C 53.488281 34.851562 54.152344 35.894531 54.625 37.082031 C 55.09375 38.273438 55.335938 39.613281 55.335938 41.054688 C 55.335938 42.496094 55.097656 43.832031 54.625 45.027344 M 55.898438 30.980469 C 54.660156 29.742188 53.160156 28.761719 51.441406 28.0625 C 49.71875 27.359375 47.828125 27.007812 45.820312 27.007812 C 43.816406 27.007812 41.925781 27.359375 40.207031 28.0625 C 38.488281 28.761719 36.984375 29.742188 35.75 30.980469 C 34.515625 32.222656 33.53125 33.722656 32.828125 35.441406 C 32.128906 37.160156 31.773438 39.046875 31.773438 41.054688 C 31.773438 43.0625 32.128906 44.949219 32.828125 46.667969 C 33.53125 48.390625 34.511719 49.890625 35.75 51.128906 C 36.988281 52.363281 38.488281 53.347656 40.207031 54.046875 C 41.925781 54.75 43.820312 55.101562 45.820312 55.101562 C 47.824219 55.101562 49.71875 54.75 51.4375 54.046875 C 53.15625 53.347656 54.65625 52.367188 55.894531 51.128906 C 57.132812 49.890625 58.113281 48.390625 58.8125 46.667969 C 59.507812 44.949219 59.867188 43.0625 59.867188 41.054688 C 59.867188 39.046875 59.511719 37.160156 58.8125 35.441406 C 58.113281 33.722656 57.128906 32.21875 55.894531 30.980469 " clip-rule="nonzero"/></clipPath><clipPath id="215eddac2d"><path d="M 63.8125 27 L 90.902344 27 L 90.902344 55.171875 L 63.8125 55.171875 Z M 63.8125 27 " clip-rule="nonzero"/></clipPath><clipPath id="0694fdb0d3"><path d="M 85.691406 45.023438 C 85.234375 46.210938 84.59375 47.25 83.789062 48.109375 C 82.984375 48.96875 82.027344 49.640625 80.941406 50.113281 C 79.855469 50.585938 78.671875 50.828125 77.40625 50.828125 C 76.140625 50.828125 74.957031 50.589844 73.871094 50.113281 C 72.785156 49.640625 71.828125 48.96875 71.023438 48.109375 C 70.222656 47.253906 69.578125 46.210938 69.125 45.023438 C 68.667969 43.832031 68.4375 42.496094 68.4375 41.054688 C 68.4375 39.609375 68.667969 38.28125 69.125 37.085938 C 69.578125 35.890625 70.21875 34.855469 71.023438 33.996094 C 71.832031 33.136719 72.785156 32.464844 73.871094 31.992188 C 74.957031 31.523438 76.144531 31.285156 77.40625 31.285156 C 78.667969 31.285156 79.855469 31.523438 80.941406 31.992188 C 82.027344 32.464844 82.984375 33.140625 83.789062 33.996094 C 84.59375 34.851562 85.230469 35.894531 85.691406 37.085938 C 86.144531 38.28125 86.378906 39.613281 86.378906 41.054688 C 86.378906 42.492188 86.144531 43.828125 85.691406 45.023438 M 90.457031 27.5625 L 86.824219 27.5625 C 86.578125 27.5625 86.378906 27.761719 86.378906 28.007812 L 86.378906 31.6875 C 85.742188 30.765625 85.066406 30.019531 84.359375 29.457031 C 83.589844 28.847656 82.578125 28.285156 81.363281 27.785156 C 80.140625 27.28125 78.628906 27.027344 76.875 27.027344 C 75.121094 27.027344 73.4375 27.378906 71.878906 28.078125 C 70.316406 28.78125 68.933594 29.757812 67.746094 30.992188 C 66.5625 32.230469 65.621094 33.730469 64.941406 35.445312 C 64.265625 37.164062 63.917969 39.050781 63.917969 41.054688 C 63.917969 43.058594 64.261719 44.945312 64.941406 46.660156 C 65.625 48.378906 66.566406 49.878906 67.746094 51.113281 C 68.929688 52.347656 70.320312 53.332031 71.878906 54.03125 C 73.4375 54.726562 75.121094 55.085938 76.875 55.085938 C 78.628906 55.085938 80.140625 54.832031 81.363281 54.328125 C 82.574219 53.828125 83.585938 53.273438 84.359375 52.679688 C 85.070312 52.136719 85.746094 51.398438 86.378906 50.476562 L 86.378906 54.105469 C 86.378906 54.351562 86.578125 54.554688 86.824219 54.554688 L 90.457031 54.554688 C 90.703125 54.554688 90.902344 54.351562 90.902344 54.105469 L 90.902344 28.007812 C 90.902344 27.761719 90.703125 27.5625 90.457031 27.5625 " clip-rule="nonzero"/></clipPath><clipPath id="5b11f7feed"><path d="M 125.792969 26.777344 L 153.632812 26.777344 L 153.632812 55.226562 L 125.792969 55.226562 Z M 125.792969 26.777344 " clip-rule="nonzero"/></clipPath><clipPath id="0a454333eb"><path d="M 152.480469 35.253906 C 151.78125 33.5625 150.804688 32.085938 149.578125 30.855469 C 148.351562 29.625 146.875 28.65625 145.183594 27.953125 C 143.492188 27.246094 141.644531 26.898438 139.707031 26.898438 C 137.765625 26.898438 135.917969 27.253906 134.226562 27.953125 C 132.535156 28.65625 131.054688 29.640625 129.832031 30.886719 C 128.609375 32.132812 127.632812 33.636719 126.929688 35.363281 C 126.226562 37.089844 125.871094 38.984375 125.871094 41 C 125.871094 43.019531 126.226562 44.914062 126.929688 46.640625 C 127.628906 48.371094 128.605469 49.878906 129.832031 51.121094 C 131.058594 52.359375 132.535156 53.347656 134.226562 54.050781 C 135.917969 54.75 137.761719 55.105469 139.707031 55.105469 C 142.257812 55.105469 144.410156 54.640625 146.109375 53.722656 C 147.796875 52.804688 149.183594 51.773438 150.226562 50.65625 C 151.308594 49.476562 152.179688 48.113281 152.8125 46.605469 L 152.855469 46.3125 C 152.6875 46.0625 152.546875 45.988281 152.394531 45.988281 L 148.753906 45.988281 C 148.601562 45.988281 148.460938 46.070312 148.375 46.207031 C 147.863281 47.054688 147.21875 47.808594 146.449219 48.4375 C 145.746094 49.035156 144.832031 49.589844 143.738281 50.085938 C 142.648438 50.578125 141.292969 50.828125 139.703125 50.828125 C 138.503906 50.828125 137.355469 50.613281 136.277344 50.1875 C 135.203125 49.765625 134.25 49.175781 133.441406 48.4375 C 132.632812 47.699219 131.953125 46.796875 131.425781 45.757812 C 131.027344 44.976562 130.734375 44.117188 130.554688 43.199219 C 130.378906 42.429688 130.292969 41.636719 130.292969 40.835938 C 130.292969 40.042969 130.378906 39.253906 130.554688 38.484375 L 130.554688 38.449219 C 130.734375 37.519531 131.066406 36.613281 131.535156 35.761719 C 132.023438 34.867188 132.675781 34.074219 133.464844 33.40625 C 134.257812 32.738281 135.191406 32.191406 136.226562 31.785156 C 137.265625 31.378906 138.4375 31.175781 139.707031 31.175781 C 140.972656 31.175781 142.140625 31.382812 143.183594 31.785156 C 144.222656 32.191406 145.140625 32.738281 145.914062 33.402344 C 146.6875 34.070312 147.324219 34.863281 147.792969 35.761719 C 148.246094 36.609375 148.546875 37.515625 148.691406 38.453125 L 135.222656 38.453125 C 134.996094 38.453125 134.8125 38.640625 134.8125 38.863281 L 134.8125 42.058594 C 134.8125 42.285156 134.996094 42.46875 135.222656 42.46875 L 153.09375 42.46875 C 153.339844 42.46875 153.539062 42.269531 153.539062 42.023438 L 153.539062 40.730469 C 153.539062 38.789062 153.183594 36.945312 152.480469 35.253906 " clip-rule="nonzero"/></clipPath><clipPath id="6765bf8f3c"><path d="M 96.117188 27.511719 L 123.097656 27.511719 L 123.097656 54.859375 L 96.117188 54.859375 Z M 96.117188 27.511719 " clip-rule="nonzero"/></clipPath><clipPath id="75f0097460"><path d="M 122.585938 27.609375 L 118.347656 27.609375 C 118.148438 27.609375 117.96875 27.746094 117.917969 27.929688 L 110.140625 50.457031 L 109.121094 50.445312 L 101.351562 27.933594 C 101.300781 27.742188 101.121094 27.605469 100.921875 27.605469 L 96.683594 27.605469 C 96.542969 27.605469 96.414062 27.667969 96.328125 27.78125 L 96.214844 28.035156 L 105.28125 54.410156 C 105.335938 54.601562 105.515625 54.738281 105.714844 54.738281 L 113.558594 54.738281 C 113.757812 54.738281 113.933594 54.601562 113.988281 54.417969 L 123.015625 28.175781 C 123.054688 28.039062 123.027344 27.898438 122.941406 27.78125 L 122.726562 27.605469 " clip-rule="nonzero"/></clipPath></defs><g clip-path="url(#9f8c1c303a)"><path fill="#ffffff" d="M 0.496094 0 L 164.503906 0 L 164.503906 82.003906 L 0.496094 82.003906 Z M 0.496094 0 " fill-opacity="1" fill-rule="nonzero"/></g><g clip-path="url(#3cc0f818da)"><g clip-path="url(#91e164a634)"><path fill="#ff8300" d="M 9.867188 25.414062 L 61.429688 25.414062 L 61.429688 56.695312 L 9.867188 56.695312 Z M 9.867188 25.414062 " fill-opacity="1" fill-rule="nonzero"/></g></g><g clip-path="url(#1e1ee208db)"><g clip-path="url(#0c2ee377e6)"><path fill="#ff8300" d="M 9.867188 25.414062 L 61.429688 25.414062 L 61.429688 56.695312 L 9.867188 56.695312 Z M 9.867188 25.414062 " fill-opacity="1" fill-rule="nonzero"/></g></g><g clip-path="url(#215eddac2d)"><g clip-path="url(#0694fdb0d3)"><path fill="#ff8300" d="M 63.917969 27.027344 L 90.902344 27.027344 L 90.902344 55.066406 L 63.917969 55.066406 Z M 63.917969 27.027344 " fill-opacity="1" fill-rule="nonzero"/></g></g><g clip-path="url(#5b11f7feed)"><g clip-path="url(#0a454333eb)"><path fill="#ff8300" d="M 94.648438 25.304688 L 155.101562 25.304688 L 155.101562 56.699219 L 94.648438 56.699219 Z M 94.648438 25.304688 " fill-opacity="1" fill-rule="nonzero"/></g></g><g clip-path="url(#6765bf8f3c)"><g clip-path="url(#75f0097460)"><path fill="#ff8300" d="M 94.648438 25.304688 L 155.101562 25.304688 L 155.101562 56.699219 L 94.648438 56.699219 Z M 94.648438 25.304688 " fill-opacity="1" fill-rule="nonzero"/></g></g></svg>