<svg xmlns="http://www.w3.org/2000/svg" xmlns:xlink="http://www.w3.org/1999/xlink" width="220" zoomAndPan="magnify" viewBox="0 0 165 82.499998" height="110" preserveAspectRatio="xMidYMid meet" version="1.0"><defs><clipPath id="2820d8cc10"><path d="M 0.496094 0 L 164.503906 0 L 164.503906 82.003906 L 0.496094 82.003906 Z M 0.496094 0 " clip-rule="nonzero"/></clipPath></defs><g clip-path="url(#2820d8cc10)"><path fill="#ffffff" d="M 0.496094 0 L 164.503906 0 L 164.503906 82.003906 L 0.496094 82.003906 Z M 0.496094 0 " fill-opacity="1" fill-rule="nonzero"/><path fill="#ffffff" d="M 0.496094 0 L 164.503906 0 L 164.503906 82.003906 L 0.496094 82.003906 Z M 0.496094 0 " fill-opacity="1" fill-rule="nonzero"/></g><path fill="#189eff" d="M 52.773438 40.980469 C 51.453125 40.410156 50.363281 39.894531 50.363281 39.042969 C 50.363281 38.441406 51.046875 37.875 52.203125 37.875 C 53.234375 37.875 54.128906 38.132812 55.046875 38.527344 C 55.304688 38.644531 55.707031 38.671875 55.90625 38.269531 L 56.367188 37.359375 C 56.539062 37.015625 56.398438 36.617188 56.082031 36.390625 C 55.417969 35.960938 54.039062 35.421875 52.199219 35.421875 C 48.976562 35.421875 47.660156 37.359375 47.660156 39.011719 C 47.660156 41.175781 49.351562 42.257812 51.394531 43.171875 C 53.234375 43.996094 54.238281 44.566406 54.238281 45.449219 C 54.238281 46.191406 53.605469 46.730469 52.484375 46.730469 C 50.902344 46.730469 49.957031 46.191406 49.179688 45.761719 C 48.832031 45.566406 48.460938 45.648438 48.316406 45.933594 L 47.710938 47.160156 C 47.566406 47.445312 47.742188 47.699219 47.941406 47.84375 C 48.691406 48.355469 50.210938 49.183594 52.3125 49.183594 C 55.273438 49.183594 57.054688 47.386719 57.054688 45.335938 C 57.058594 42.886719 55.21875 42.007812 52.773438 40.980469 Z M 52.773438 40.980469 " fill-opacity="1" fill-rule="nonzero"/><path fill="#189eff" d="M 35.144531 52.867188 C 33.796875 51.859375 31.804688 51.09375 29.695312 50.285156 C 27.1875 49.320312 24.34375 48.226562 22.207031 46.542969 C 19.789062 44.636719 18.609375 42.226562 18.609375 39.183594 C 18.609375 36.453125 19.753906 34.117188 21.917969 32.429688 C 24.34375 30.535156 28.023438 29.535156 32.550781 29.535156 C 33.804688 29.535156 35 29.609375 36.105469 29.761719 C 36.207031 29.773438 36.296875 29.722656 36.335938 29.632812 C 36.378906 29.542969 36.359375 29.441406 36.285156 29.375 C 33.429688 26.832031 29.742188 25.433594 25.898438 25.433594 C 21.746094 25.433594 17.839844 27.035156 14.902344 29.945312 C 11.96875 32.855469 10.347656 36.722656 10.347656 40.835938 C 10.347656 44.953125 11.964844 48.820312 14.902344 51.730469 C 17.839844 54.636719 21.742188 56.242188 25.898438 56.242188 C 29.253906 56.242188 32.449219 55.199219 35.144531 53.222656 C 35.199219 53.183594 35.234375 53.117188 35.234375 53.046875 C 35.234375 52.976562 35.203125 52.910156 35.144531 52.867188 Z M 35.144531 52.867188 " fill-opacity="1" fill-rule="nonzero"/><path fill="#189eff" d="M 41.378906 39.414062 C 41.371094 39.355469 41.34375 39.300781 41.300781 39.261719 C 38.054688 36.59375 35.429688 35.503906 32.242188 35.503906 C 30.539062 35.503906 29.234375 35.84375 28.363281 36.511719 C 27.609375 37.085938 27.210938 37.894531 27.210938 38.835938 C 27.210938 41.484375 30.476562 42.6875 34.253906 44.085938 C 36.203125 44.804688 38.214844 45.550781 40.0625 46.566406 C 40.097656 46.585938 40.136719 46.59375 40.171875 46.59375 C 40.195312 46.59375 40.222656 46.589844 40.246094 46.582031 C 40.308594 46.558594 40.359375 46.511719 40.378906 46.453125 C 41.085938 44.660156 41.445312 42.769531 41.445312 40.835938 C 41.441406 40.382812 41.421875 39.902344 41.378906 39.414062 Z M 41.378906 39.414062 " fill-opacity="1" fill-rule="nonzero"/><path fill="#189eff" d="M 130.734375 49.023438 C 131.132812 48.976562 131.40625 48.6875 131.40625 48.332031 L 131.40625 41.648438 C 131.40625 38.230469 130.988281 35.582031 126.546875 35.582031 C 123.996094 35.582031 122.015625 36.265625 121.773438 36.355469 C 121.445312 36.472656 121.234375 36.679688 121.324219 37.15625 L 121.597656 38.289062 C 121.6875 38.675781 121.953125 38.941406 122.375 38.855469 C 123.097656 38.648438 124.65625 38.199219 126.246094 38.199219 C 127.988281 38.199219 128.527344 39.179688 128.46875 41.351562 C 128.46875 41.351562 127.117188 40.933594 125.675781 40.933594 C 122.105469 40.933594 120.125 42.835938 120.125 45.367188 C 120.125 48.222656 121.953125 49.1875 124.5625 49.1875 C 126.691406 49.1875 128.886719 49.164062 129.796875 49.101562 Z M 128.4375 46.597656 C 128.015625 47.28125 126.515625 47.109375 125.226562 47.085938 C 123.785156 47.054688 123.066406 46.554688 123.066406 45.335938 C 123.066406 43.90625 124.292969 43.074219 125.914062 43.074219 C 127.175781 43.074219 128.257812 43.433594 128.4375 43.550781 Z M 128.4375 46.597656 " fill-opacity="1" fill-rule="nonzero"/><path fill="#189eff" d="M 153.394531 35.425781 C 154.265625 35.425781 154.972656 34.726562 154.972656 33.863281 C 154.972656 33.003906 154.265625 32.304688 153.394531 32.304688 C 152.519531 32.304688 151.8125 33.003906 151.8125 33.863281 C 151.8125 34.726562 152.519531 35.425781 153.394531 35.425781 Z M 153.394531 32.535156 C 154.125 32.535156 154.722656 33.132812 154.722656 33.863281 C 154.722656 34.59375 154.128906 35.195312 153.394531 35.195312 C 152.660156 35.195312 152.066406 34.59375 152.066406 33.863281 C 152.066406 33.132812 152.660156 32.535156 153.394531 32.535156 Z M 153.394531 32.535156 " fill-opacity="1" fill-rule="nonzero"/><path fill="#189eff" d="M 152.855469 34.652344 L 153.003906 34.652344 C 153.027344 34.652344 153.046875 34.632812 153.046875 34.613281 L 153.046875 34.039062 L 153.390625 34.039062 L 153.6875 34.625 C 153.695312 34.644531 153.710938 34.652344 153.734375 34.652344 L 153.90625 34.652344 C 153.945312 34.652344 153.957031 34.617188 153.945312 34.589844 L 153.632812 34.015625 C 153.832031 33.9375 153.96875 33.765625 153.96875 33.558594 C 153.96875 33.289062 153.746094 33.078125 153.476562 33.078125 L 152.855469 33.078125 C 152.832031 33.078125 152.816406 33.097656 152.816406 33.121094 L 152.816406 34.613281 C 152.816406 34.632812 152.832031 34.652344 152.855469 34.652344 Z M 153.050781 33.296875 L 153.457031 33.296875 C 153.601562 33.296875 153.734375 33.417969 153.734375 33.566406 C 153.734375 33.722656 153.601562 33.84375 153.457031 33.84375 L 153.050781 33.84375 Z M 153.050781 33.296875 " fill-opacity="1" fill-rule="nonzero"/><path fill="#189eff" d="M 65.890625 35.425781 C 63.789062 35.425781 62.351562 36.5625 62.039062 36.792969 L 62.039062 30.917969 C 62.039062 30.601562 61.722656 30.289062 61.40625 30.289062 L 59.796875 30.289062 C 59.449219 30.289062 59.164062 30.601562 59.164062 30.917969 L 59.164062 48.558594 C 59.164062 48.898438 59.449219 49.183594 59.796875 49.183594 L 61.378906 49.183594 C 61.78125 49.183594 62.039062 48.925781 62.039062 48.558594 L 62.039062 40.039062 C 62.328125 39.472656 63.476562 38.132812 65.515625 38.132812 C 67.242188 38.132812 68.160156 39.414062 68.160156 41.578125 L 68.160156 48.558594 C 68.160156 48.902344 68.449219 49.1875 68.792969 49.1875 L 70.402344 49.1875 C 70.71875 49.1875 71.035156 48.902344 71.035156 48.558594 L 71.035156 41.636719 C 71.035156 38.046875 69.65625 35.425781 65.890625 35.425781 Z M 65.890625 35.425781 " fill-opacity="1" fill-rule="nonzero"/><path fill="#189eff" d="M 99.5625 41.773438 C 99.40625 37.300781 97.515625 35.425781 93.160156 35.425781 C 91.070312 35.425781 88.574219 36.046875 88.207031 36.207031 C 87.757812 36.398438 87.421875 36.628906 87.421875 36.941406 L 87.421875 53.691406 C 87.421875 54.035156 87.710938 54.320312 88.054688 54.320312 L 89.390625 54.320312 C 89.820312 54.320312 90.078125 54.0625 90.078125 53.691406 L 90.074219 48.957031 C 90.480469 49.0625 92.542969 49.234375 94.269531 49.183594 C 97.34375 49.085938 99.40625 46.875 99.578125 43.140625 C 99.597656 42.628906 99.597656 41.925781 99.5625 41.464844 Z M 96.785156 43.136719 C 96.726562 45.671875 95.984375 46.789062 93.832031 46.910156 C 92.765625 46.96875 90.25 46.671875 90.25 46.671875 C 90.144531 46.640625 90.074219 46.59375 90.074219 46.5 L 90.074219 38.453125 C 90.074219 38.375 90.132812 38.3125 90.210938 38.300781 C 90.507812 38.269531 91.59375 37.925781 93.160156 37.925781 C 95.78125 37.925781 96.707031 38.304688 96.792969 41.59375 C 96.796875 42.027344 96.796875 42.636719 96.785156 43.136719 Z M 96.785156 43.136719 " fill-opacity="1" fill-rule="nonzero"/><path fill="#189eff" d="M 118.601562 35.710938 L 117.394531 35.710938 C 117.050781 35.710938 116.5625 35.710938 116.390625 36.109375 L 114.261719 43.6875 L 114.207031 43.6875 L 110.640625 35.738281 C 110.582031 35.566406 110.378906 35.425781 110.066406 35.425781 L 109.867188 35.425781 C 109.605469 35.425781 109.40625 35.566406 109.320312 35.738281 L 105.722656 43.65625 L 105.667969 43.65625 L 103.484375 36.109375 C 103.425781 35.851562 103.140625 35.710938 102.910156 35.710938 L 101.183594 35.710938 C 100.722656 35.710938 100.523438 36.050781 100.722656 36.453125 L 104.605469 48.84375 C 104.660156 49.042969 104.867188 49.183594 105.152344 49.183594 L 105.324219 49.183594 C 105.613281 49.183594 105.785156 49.042969 105.839844 48.871094 L 109.921875 39.925781 L 109.980469 39.925781 L 114.035156 48.871094 C 114.121094 49.042969 114.320312 49.183594 114.605469 49.183594 L 114.722656 49.183594 C 115.011719 49.183594 115.269531 49.042969 115.328125 48.84375 L 119.121094 36.453125 C 119.320312 36.050781 119.0625 35.710938 118.601562 35.710938 Z M 118.601562 35.710938 " fill-opacity="1" fill-rule="nonzero"/><path fill="#189eff" d="M 139.808594 35.582031 C 139.738281 35.582031 139.671875 35.585938 139.601562 35.589844 C 139.484375 35.585938 139.371094 35.582031 139.25 35.582031 C 138.5625 35.582031 137.898438 35.601562 137.28125 35.632812 C 136.089844 35.683594 135.382812 35.769531 134.878906 35.828125 C 134.878906 35.828125 134.558594 35.859375 134.183594 35.90625 C 133.929688 35.9375 133.746094 36.039062 133.632812 36.183594 C 133.558594 36.265625 133.511719 36.367188 133.511719 36.492188 L 133.511719 48.554688 C 133.511719 48.894531 133.796875 49.183594 134.144531 49.183594 L 135.464844 49.183594 C 136.011719 49.183594 136.386719 49.125 136.386719 48.554688 L 136.386719 38.53125 C 136.386719 38.453125 136.511719 38.355469 136.578125 38.3125 C 136.902344 38.121094 137.683594 37.980469 139.25 37.980469 C 139.402344 37.980469 139.503906 37.984375 139.617188 37.984375 C 139.972656 38.019531 140.542969 38.128906 140.726562 38.230469 C 141.015625 38.375 141.359375 38.289062 141.53125 37.917969 L 142.21875 36.800781 C 142.652344 35.921875 141.074219 35.582031 139.808594 35.582031 Z M 139.808594 35.582031 " fill-opacity="1" fill-rule="nonzero"/><path fill="#189eff" d="M 148.90625 35.425781 C 144.914062 35.425781 142.296875 38.585938 142.296875 42.289062 C 142.296875 46.050781 144.914062 49.183594 148.933594 49.183594 C 151.148438 49.183594 152.902344 48.382812 153.851562 47.558594 C 154.253906 47.214844 154.140625 46.957031 153.90625 46.675781 L 153.132812 45.480469 C 152.902344 45.140625 152.640625 45.222656 152.355469 45.425781 C 151.550781 45.992188 150.628906 46.535156 149.105469 46.535156 C 146.777344 46.535156 145.167969 44.714844 145.136719 42.945312 L 154.308594 42.945312 C 154.597656 42.945312 154.882812 42.71875 154.914062 42.375 C 154.941406 42.148438 154.96875 41.691406 154.96875 41.464844 C 154.96875 37.960938 152.355469 35.425781 148.90625 35.425781 Z M 145.285156 40.835938 C 145.484375 39.183594 146.75 37.847656 148.851562 37.847656 C 150.804688 37.847656 152.070312 39.242188 152.128906 40.835938 Z M 145.285156 40.835938 " fill-opacity="1" fill-rule="nonzero"/><path fill="#189eff" d="M 85.113281 39.496094 C 84.816406 38.648438 84.394531 37.917969 83.855469 37.3125 C 83.316406 36.710938 82.667969 36.242188 81.917969 35.914062 C 81.171875 35.585938 80.109375 35.421875 79.226562 35.421875 C 78.34375 35.421875 77.285156 35.585938 76.539062 35.914062 C 75.789062 36.242188 75.144531 36.710938 74.601562 37.3125 C 74.0625 37.917969 73.640625 38.648438 73.34375 39.496094 C 73.042969 40.34375 72.894531 41.28125 72.894531 42.304688 C 72.894531 43.347656 73.042969 44.289062 73.34375 45.128906 C 73.640625 45.96875 74.0625 46.691406 74.601562 47.292969 C 75.140625 47.898438 75.789062 48.367188 76.539062 48.695312 C 77.285156 49.023438 78.34375 49.183594 79.226562 49.183594 C 80.109375 49.183594 81.171875 49.023438 81.917969 48.695312 C 82.667969 48.367188 83.3125 47.898438 83.855469 47.292969 C 84.394531 46.691406 84.816406 45.96875 85.113281 45.128906 C 85.414062 44.289062 85.5625 43.347656 85.5625 42.304688 C 85.5625 41.28125 85.414062 40.34375 85.113281 39.496094 Z M 79.152344 46.917969 C 76.753906 46.917969 75.546875 44.902344 75.546875 42.421875 C 75.546875 39.9375 76.753906 37.925781 79.152344 37.925781 C 81.554688 37.925781 82.761719 39.9375 82.761719 42.421875 C 82.761719 44.902344 81.550781 46.917969 79.152344 46.917969 Z M 79.152344 46.917969 " fill-opacity="1" fill-rule="nonzero"/></svg>