<svg xmlns="http://www.w3.org/2000/svg" xmlns:xlink="http://www.w3.org/1999/xlink" width="220" zoomAndPan="magnify" viewBox="0 0 165 82.499998" height="110" preserveAspectRatio="xMidYMid meet" version="1.0"><defs><clipPath id="3a4b556fd4"><path d="M 0.496094 0 L 164.503906 0 L 164.503906 82.003906 L 0.496094 82.003906 Z M 0.496094 0 " clip-rule="nonzero"/></clipPath><clipPath id="c48871d36c"><path d="M 148 35 L 156.300781 35 L 156.300781 46 L 148 46 Z M 148 35 " clip-rule="nonzero"/></clipPath></defs><g clip-path="url(#3a4b556fd4)"><path fill="#ffffff" d="M 0.496094 0 L 164.503906 0 L 164.503906 82.003906 L 0.496094 82.003906 Z M 0.496094 0 " fill-opacity="1" fill-rule="nonzero"/></g><path fill="#d42027" d="M 12.617188 48.066406 C 14.574219 49.960938 17.09375 50.929688 19.628906 50.976562 C 19.375 48.335938 19.121094 45.683594 18.851562 42.914062 C 17.035156 44.359375 14.46875 46.574219 12.617188 48.066406 " fill-opacity="1" fill-rule="evenodd"/><path fill="#d42027" d="M 20.03125 50.976562 C 22.585938 50.921875 25.121094 49.933594 27.082031 48.007812 C 25.253906 46.542969 22.636719 44.296875 20.785156 42.84375 C 20.527344 45.640625 20.28125 48.3125 20.03125 50.976562 " fill-opacity="1" fill-rule="evenodd"/><path fill="#d42027" d="M 12.335938 33.480469 C 10.453125 35.445312 9.492188 37.96875 9.460938 40.503906 C 12.101562 40.265625 14.75 40.023438 17.488281 39.777344 C 16.027344 37.914062 13.792969 35.3125 12.335938 33.480469 " fill-opacity="1" fill-rule="evenodd"/><path fill="#d42027" d="M 9.464844 40.929688 C 9.535156 43.417969 10.503906 45.886719 12.367188 47.816406 C 13.835938 45.996094 16.027344 43.464844 17.421875 41.707031 C 14.675781 41.4375 12.0625 41.183594 9.464844 40.929688 " fill-opacity="1" fill-rule="evenodd"/><path fill="#d42027" d="M 27.300781 47.785156 C 29.183594 45.820312 30.144531 43.296875 30.175781 40.761719 C 27.535156 41 24.886719 41.242188 22.148438 41.488281 C 23.609375 43.351562 25.84375 45.953125 27.300781 47.785156 " fill-opacity="1" fill-rule="evenodd"/><path fill="#d42027" d="M 19.605469 30.289062 C 17.050781 30.34375 14.515625 31.332031 12.554688 33.257812 C 14.382812 34.722656 17.003906 36.96875 18.851562 38.421875 C 19.109375 35.625 19.359375 32.953125 19.605469 30.289062 " fill-opacity="1" fill-rule="evenodd"/><path fill="#d42027" d="M 32.59375 50.839844 C 35.148438 50.785156 37.683594 49.796875 39.644531 47.871094 C 37.8125 46.40625 35.195312 44.160156 33.347656 42.707031 C 33.089844 45.503906 32.839844 48.175781 32.59375 50.839844 " fill-opacity="1" fill-rule="evenodd"/><path fill="#d42027" d="M 24.898438 33.34375 C 23.011719 35.308594 22.054688 37.832031 22.023438 40.367188 C 24.660156 40.128906 27.308594 39.886719 30.050781 39.640625 C 28.589844 37.777344 26.355469 35.175781 24.898438 33.34375 " fill-opacity="1" fill-rule="evenodd"/><path fill="#d42027" d="M 34.710938 41.351562 C 36.171875 43.210938 38.402344 45.816406 39.863281 47.648438 C 41.746094 45.683594 42.703125 43.160156 42.738281 40.625 C 40.097656 40.863281 37.449219 41.105469 34.710938 41.351562 " fill-opacity="1" fill-rule="evenodd"/><path fill="#d42027" d="M 31.414062 38.285156 C 31.671875 35.488281 31.917969 32.816406 32.164062 30.152344 C 29.613281 30.207031 27.078125 31.195312 25.117188 33.121094 C 26.945312 34.585938 29.5625 36.832031 31.414062 38.285156 " fill-opacity="1" fill-rule="evenodd"/><path fill="#d42027" d="M 39.582031 33.0625 C 37.625 31.167969 35.105469 30.199219 32.570312 30.152344 C 32.824219 32.792969 33.078125 35.445312 33.347656 38.214844 C 35.164062 36.769531 37.730469 34.554688 39.582031 33.0625 " fill-opacity="1" fill-rule="evenodd"/><path fill="#d42027" d="M 42.730469 40.199219 C 42.660156 37.710938 41.695312 35.238281 39.832031 33.3125 C 38.363281 35.132812 36.175781 37.664062 34.777344 39.421875 C 37.523438 39.691406 40.136719 39.945312 42.730469 40.199219 " fill-opacity="1" fill-rule="evenodd"/><path fill="#d42027" d="M 54.476562 41.097656 C 54.304688 40.898438 54.109375 40.726562 53.886719 40.585938 C 53.664062 40.445312 53.425781 40.328125 53.175781 40.238281 C 52.660156 40.046875 51.976562 39.859375 51.121094 39.679688 C 50.683594 39.582031 50.324219 39.488281 50.035156 39.398438 C 49.746094 39.304688 49.515625 39.207031 49.347656 39.089844 C 49.175781 38.980469 49.054688 38.851562 48.984375 38.703125 C 48.914062 38.554688 48.878906 38.382812 48.878906 38.175781 C 48.878906 37.730469 49.074219 37.371094 49.464844 37.105469 C 49.855469 36.835938 50.410156 36.699219 51.128906 36.699219 C 52.605469 36.699219 53.410156 37.285156 53.539062 38.457031 L 54.789062 38.457031 C 54.773438 37.992188 54.671875 37.578125 54.484375 37.21875 C 54.296875 36.855469 54.042969 36.550781 53.71875 36.304688 C 53.394531 36.058594 53.011719 35.871094 52.5625 35.742188 C 52.117188 35.613281 51.621094 35.546875 51.078125 35.546875 C 50.5625 35.546875 50.09375 35.613281 49.671875 35.746094 C 49.246094 35.878906 48.882812 36.0625 48.582031 36.300781 C 48.28125 36.539062 48.050781 36.824219 47.878906 37.148438 C 47.714844 37.476562 47.632812 37.839844 47.632812 38.238281 C 47.632812 38.9375 47.871094 39.496094 48.351562 39.90625 C 48.589844 40.117188 48.910156 40.304688 49.304688 40.46875 C 49.707031 40.636719 50.183594 40.777344 50.738281 40.890625 C 51.300781 41.007812 51.773438 41.125 52.15625 41.234375 C 52.542969 41.34375 52.855469 41.46875 53.097656 41.605469 C 53.335938 41.746094 53.507812 41.90625 53.613281 42.089844 C 53.71875 42.273438 53.769531 42.503906 53.769531 42.769531 C 53.769531 43.027344 53.710938 43.257812 53.597656 43.457031 C 53.480469 43.65625 53.316406 43.828125 53.109375 43.972656 C 52.898438 44.117188 52.648438 44.226562 52.351562 44.304688 C 52.058594 44.378906 51.730469 44.417969 51.375 44.417969 C 51.003906 44.417969 50.648438 44.375 50.316406 44.292969 C 49.988281 44.207031 49.695312 44.078125 49.441406 43.90625 C 49.183594 43.734375 48.976562 43.515625 48.820312 43.25 C 48.660156 42.984375 48.566406 42.664062 48.53125 42.296875 L 47.292969 42.296875 C 47.308594 42.769531 47.40625 43.214844 47.578125 43.613281 C 47.757812 44.015625 48.015625 44.359375 48.351562 44.652344 C 48.691406 44.941406 49.117188 45.171875 49.625 45.332031 C 50.136719 45.496094 50.738281 45.582031 51.425781 45.582031 C 51.957031 45.582031 52.445312 45.507812 52.886719 45.359375 C 53.328125 45.214844 53.707031 45.007812 54.023438 44.75 C 54.339844 44.488281 54.589844 44.179688 54.761719 43.828125 C 54.9375 43.476562 55.027344 43.089844 55.027344 42.671875 C 55.027344 42.34375 54.976562 42.050781 54.878906 41.789062 C 54.78125 41.527344 54.644531 41.296875 54.476562 41.097656 " fill-opacity="1" fill-rule="nonzero"/><path fill="#d42027" d="M 64.457031 39.351562 C 64.375 39.574219 64.242188 39.761719 64.0625 39.917969 C 63.878906 40.070312 63.644531 40.183594 63.351562 40.261719 C 63.0625 40.339844 62.707031 40.382812 62.296875 40.382812 L 59.832031 40.382812 L 59.832031 36.863281 L 62.261719 36.863281 C 62.8125 36.863281 63.246094 36.902344 63.550781 36.980469 C 63.699219 37.019531 63.835938 37.089844 63.960938 37.191406 C 64.089844 37.289062 64.199219 37.410156 64.289062 37.554688 C 64.378906 37.699219 64.449219 37.859375 64.5 38.03125 C 64.554688 38.207031 64.578125 38.390625 64.578125 38.582031 C 64.578125 38.871094 64.539062 39.128906 64.457031 39.351562 M 65.4375 36.894531 C 65.285156 36.664062 65.101562 36.464844 64.882812 36.300781 C 64.667969 36.128906 64.429688 36.011719 64.160156 35.9375 C 63.890625 35.859375 63.589844 35.800781 63.261719 35.769531 C 62.933594 35.734375 62.570312 35.714844 62.175781 35.714844 L 58.550781 35.714844 L 58.550781 45.410156 L 59.832031 45.410156 L 59.832031 41.535156 L 62.277344 41.535156 C 63.464844 41.535156 64.371094 41.28125 64.984375 40.773438 C 65.605469 40.269531 65.910156 39.527344 65.910156 38.542969 C 65.910156 38.242188 65.871094 37.949219 65.789062 37.667969 C 65.707031 37.386719 65.589844 37.128906 65.4375 36.894531 " fill-opacity="1" fill-rule="nonzero"/><path fill="#d42027" d="M 70.996094 35.714844 L 67.21875 45.410156 L 68.59375 45.410156 L 71.65625 37.097656 L 74.722656 45.410156 L 76.097656 45.410156 L 72.320312 35.714844 Z M 70.996094 35.714844 " fill-opacity="1" fill-rule="nonzero"/><path fill="#d42027" d="M 84.199219 40.019531 C 83.910156 40.082031 83.566406 40.109375 83.160156 40.109375 L 80.292969 40.109375 L 80.292969 36.777344 L 83.355469 36.777344 C 84.746094 36.777344 85.4375 37.328125 85.4375 38.429688 C 85.4375 38.738281 85.398438 39 85.3125 39.210938 C 85.226562 39.425781 85.09375 39.601562 84.90625 39.730469 C 84.722656 39.867188 84.484375 39.960938 84.199219 40.019531 M 84.589844 41.015625 C 84.921875 40.933594 85.226562 40.816406 85.492188 40.664062 C 85.761719 40.515625 85.992188 40.332031 86.175781 40.109375 C 86.363281 39.890625 86.507812 39.636719 86.609375 39.355469 C 86.714844 39.074219 86.761719 38.765625 86.761719 38.429688 C 86.761719 38.140625 86.722656 37.863281 86.644531 37.597656 C 86.5625 37.328125 86.453125 37.082031 86.3125 36.855469 C 86.167969 36.632812 86 36.441406 85.800781 36.28125 C 85.605469 36.121094 85.386719 36.003906 85.148438 35.929688 C 84.910156 35.855469 84.640625 35.800781 84.328125 35.769531 C 84.023438 35.734375 83.679688 35.71875 83.304688 35.71875 L 79.007812 35.71875 L 79.007812 45.410156 L 80.292969 45.410156 L 80.292969 41.265625 L 82.671875 41.265625 C 82.914062 41.265625 83.144531 41.300781 83.371094 41.378906 C 83.59375 41.453125 83.796875 41.5625 83.980469 41.699219 C 84.164062 41.839844 84.328125 42.003906 84.464844 42.195312 C 84.605469 42.390625 84.714844 42.597656 84.800781 42.824219 L 85.710938 45.410156 L 87.101562 45.410156 L 86.125 42.773438 C 85.78125 41.828125 85.269531 41.246094 84.589844 41.015625 " fill-opacity="1" fill-rule="nonzero"/><path fill="#d42027" d="M 98.300781 35.714844 L 96.566406 35.714844 L 91.828125 40.527344 L 91.828125 35.714844 L 90.546875 35.714844 L 90.546875 45.410156 L 91.828125 45.410156 L 91.828125 42.050781 L 93.339844 40.578125 L 96.789062 45.410156 L 98.476562 45.410156 L 94.234375 39.695312 Z M 98.300781 35.714844 " fill-opacity="1" fill-rule="nonzero"/><g clip-path="url(#c48871d36c)"><path fill="#111212" d="M 156.171875 35.714844 L 154.4375 35.714844 L 149.699219 40.527344 L 149.699219 35.714844 L 148.414062 35.714844 L 148.414062 45.410156 L 149.699219 45.410156 L 149.699219 42.050781 L 151.207031 40.578125 L 154.65625 45.410156 L 156.34375 45.410156 L 152.101562 39.695312 Z M 156.171875 35.714844 " fill-opacity="1" fill-rule="nonzero"/></g><path fill="#111212" d="M 101.328125 45.410156 L 102.613281 45.410156 L 102.613281 41.015625 L 107.179688 41.015625 L 107.179688 39.863281 L 102.613281 39.863281 L 102.613281 36.863281 L 107.875 36.863281 L 107.875 35.71875 L 101.328125 35.71875 Z M 101.328125 45.410156 " fill-opacity="1" fill-rule="nonzero"/><path fill="#111212" d="M 113.019531 35.714844 L 109.242188 45.410156 L 110.617188 45.410156 L 113.683594 37.097656 L 116.75 45.410156 L 118.125 45.410156 L 114.347656 35.714844 Z M 113.019531 35.714844 " fill-opacity="1" fill-rule="nonzero"/><path fill="#111212" d="M 124.660156 44.257812 L 122.320312 44.257812 L 122.320312 40.925781 L 124.492188 40.925781 C 124.96875 40.925781 125.363281 40.957031 125.675781 41.027344 C 125.992188 41.09375 126.242188 41.195312 126.433594 41.335938 C 126.628906 41.472656 126.765625 41.648438 126.84375 41.855469 C 126.925781 42.066406 126.960938 42.3125 126.960938 42.597656 C 126.960938 43.703125 126.195312 44.257812 124.660156 44.257812 M 122.320312 36.863281 L 124.355469 36.863281 C 124.761719 36.863281 125.105469 36.894531 125.386719 36.953125 C 125.667969 37.019531 125.894531 37.105469 126.066406 37.226562 C 126.238281 37.347656 126.363281 37.496094 126.4375 37.675781 C 126.519531 37.859375 126.554688 38.066406 126.554688 38.304688 C 126.554688 38.828125 126.386719 39.207031 126.050781 39.433594 C 125.710938 39.660156 125.191406 39.769531 124.484375 39.769531 L 122.320312 39.769531 Z M 127.824219 41.144531 C 127.667969 40.941406 127.472656 40.765625 127.238281 40.609375 C 127.003906 40.460938 126.730469 40.339844 126.417969 40.261719 C 127.355469 39.816406 127.820312 39.125 127.820312 38.1875 C 127.820312 37.800781 127.746094 37.457031 127.589844 37.148438 C 127.4375 36.84375 127.21875 36.585938 126.929688 36.375 C 126.640625 36.160156 126.289062 36 125.878906 35.886719 C 125.46875 35.773438 125.007812 35.714844 124.492188 35.714844 L 121.035156 35.714844 L 121.035156 45.410156 L 124.667969 45.410156 C 125.859375 45.410156 126.761719 45.167969 127.375 44.6875 C 127.992188 44.203125 128.296875 43.503906 128.296875 42.597656 C 128.296875 42.324219 128.253906 42.066406 128.175781 41.820312 C 128.097656 41.574219 127.980469 41.351562 127.824219 41.144531 " fill-opacity="1" fill-rule="nonzero"/><path fill="#111212" d="M 137.003906 40.019531 C 136.71875 40.082031 136.371094 40.109375 135.96875 40.109375 L 133.097656 40.109375 L 133.097656 36.777344 L 136.164062 36.777344 C 137.554688 36.777344 138.246094 37.328125 138.246094 38.429688 C 138.246094 38.738281 138.203125 39 138.117188 39.210938 C 138.03125 39.425781 137.898438 39.601562 137.714844 39.730469 C 137.53125 39.867188 137.292969 39.960938 137.003906 40.019531 M 137.394531 41.015625 C 137.730469 40.933594 138.03125 40.816406 138.300781 40.664062 C 138.570312 40.515625 138.796875 40.332031 138.984375 40.109375 C 139.171875 39.890625 139.316406 39.636719 139.417969 39.355469 C 139.519531 39.074219 139.570312 38.765625 139.570312 38.429688 C 139.570312 38.140625 139.53125 37.863281 139.453125 37.597656 C 139.371094 37.328125 139.261719 37.082031 139.121094 36.855469 C 138.980469 36.632812 138.808594 36.441406 138.613281 36.28125 C 138.414062 36.121094 138.195312 36.003906 137.957031 35.929688 C 137.71875 35.855469 137.445312 35.800781 137.136719 35.769531 C 136.828125 35.734375 136.488281 35.71875 136.117188 35.71875 L 131.816406 35.71875 L 131.816406 45.410156 L 133.097656 45.410156 L 133.097656 41.265625 L 135.476562 41.265625 C 135.71875 41.265625 135.953125 41.300781 136.179688 41.378906 C 136.402344 41.453125 136.605469 41.5625 136.789062 41.699219 C 136.972656 41.839844 137.132812 42.003906 137.273438 42.195312 C 137.410156 42.390625 137.523438 42.597656 137.609375 42.824219 L 138.519531 45.410156 L 139.910156 45.410156 L 138.933594 42.773438 C 138.585938 41.828125 138.074219 41.246094 137.394531 41.015625 " fill-opacity="1" fill-rule="nonzero"/><path fill="#111212" d="M 143.519531 35.71875 L 144.808594 35.71875 L 144.808594 45.410156 L 143.519531 45.410156 Z M 143.519531 35.71875 " fill-opacity="1" fill-rule="evenodd"/></svg>