<svg xmlns="http://www.w3.org/2000/svg" xmlns:xlink="http://www.w3.org/1999/xlink" width="220" zoomAndPan="magnify" viewBox="0 0 165 82.499998" height="110" preserveAspectRatio="xMidYMid meet" version="1.0"><defs><clipPath id="id1"><path d="M 0.496094 0 L 164.503906 0 L 164.503906 82.003906 L 0.496094 82.003906 Z M 0.496094 0 " clip-rule="nonzero"/></clipPath><clipPath id="id2"><path d="M 111 36 L 156.300781 36 L 156.300781 51.886719 L 111 51.886719 Z M 111 36 " clip-rule="nonzero"/></clipPath><clipPath id="id3"><path d="M 8.699219 30.265625 L 107 30.265625 L 107 51.886719 L 8.699219 51.886719 Z M 8.699219 30.265625 " clip-rule="nonzero"/></clipPath></defs><g clip-path="url(#id1)"><path fill="rgb(100%, 100%, 100%)" d="M 0.496094 0 L 164.503906 0 L 164.503906 171.460938 L 0.496094 171.460938 Z M 0.496094 0 " fill-opacity="1" fill-rule="nonzero"/><path fill="rgb(100%, 100%, 100%)" d="M 0.496094 0 L 164.503906 0 L 164.503906 82.003906 L 0.496094 82.003906 Z M 0.496094 0 " fill-opacity="1" fill-rule="nonzero"/><path fill="rgb(100%, 100%, 100%)" d="M 0.496094 0 L 164.503906 0 L 164.503906 82.003906 L 0.496094 82.003906 Z M 0.496094 0 " fill-opacity="1" fill-rule="nonzero"/><path fill="rgb(100%, 100%, 100%)" d="M 0.496094 0 L 164.503906 0 L 164.503906 82.003906 L 0.496094 82.003906 Z M 0.496094 0 " fill-opacity="1" fill-rule="nonzero"/></g><g clip-path="url(#id2)"><path fill="rgb(79.60968%, 19.999695%, 23.139954%)" d="M 122.84375 47.488281 C 122.84375 50.117188 121.035156 51.644531 118.128906 51.644531 L 111.136719 51.644531 L 111.136719 36.523438 L 117.917969 36.523438 C 120.597656 36.523438 122.253906 38.203125 122.253906 40.429688 C 122.253906 41.679688 121.941406 42.90625 120.445312 43.671875 C 122.402344 44.414062 122.84375 45.75 122.84375 47.488281 Z M 114.277344 39.195312 L 114.277344 42.570312 L 117.457031 42.570312 C 117.683594 42.59375 117.90625 42.5625 118.125 42.484375 C 118.339844 42.40625 118.527344 42.285156 118.6875 42.121094 C 118.851562 41.957031 118.96875 41.765625 119.042969 41.546875 C 119.121094 41.328125 119.144531 41.101562 119.117188 40.875 C 119.140625 40.65625 119.117188 40.441406 119.046875 40.230469 C 118.976562 40.023438 118.867188 39.839844 118.71875 39.679688 C 118.570312 39.515625 118.394531 39.394531 118.191406 39.308594 C 117.988281 39.226562 117.777344 39.1875 117.558594 39.195312 Z M 119.707031 47.109375 C 119.707031 45.917969 119.078125 45.21875 117.707031 45.21875 L 114.277344 45.21875 L 114.277344 48.992188 L 117.960938 48.992188 C 119.097656 48.992188 119.707031 48.296875 119.707031 47.109375 Z M 153.710938 47.109375 C 152.796875 45.394531 152.011719 44.582031 151.03125 44.078125 C 152.050781 43.605469 152.914062 42.867188 153.855469 40.996094 L 155.964844 36.574219 L 152.328125 36.574219 L 150.257812 40.867188 C 149.984375 41.421875 149.59375 41.871094 149.082031 42.21875 C 148.839844 42.375 148.59375 42.375 148.347656 42.21875 C 147.839844 41.871094 147.445312 41.421875 147.171875 40.867188 L 145.105469 36.574219 L 141.46875 36.574219 L 143.5625 41 C 144.5 42.871094 145.347656 43.609375 146.386719 44.082031 C 145.417969 44.585938 144.632812 45.398438 143.707031 47.113281 L 141.113281 51.613281 L 144.777344 51.613281 L 147.316406 47.320312 C 147.550781 46.871094 147.855469 46.480469 148.230469 46.144531 C 148.367188 46.027344 148.523438 45.96875 148.703125 45.96875 C 148.882812 45.96875 149.039062 46.027344 149.171875 46.144531 C 149.550781 46.480469 149.855469 46.871094 150.089844 47.320312 L 152.625 51.613281 L 156.289062 51.613281 Z M 125.980469 44.117188 C 125.980469 39.082031 128.386719 36.34375 132.785156 36.34375 C 137.179688 36.34375 139.582031 39.074219 139.582031 44.109375 C 139.582031 49.140625 137.179688 51.867188 132.785156 51.867188 C 128.386719 51.867188 125.980469 49.109375 125.980469 44.109375 Z M 136.3125 44.117188 C 136.3125 40.925781 135.191406 39.398438 132.785156 39.398438 C 130.375 39.398438 129.25 40.925781 129.25 44.117188 C 129.25 47.304688 130.375 48.832031 132.785156 48.832031 C 135.191406 48.832031 136.3125 47.292969 136.3125 44.109375 Z M 136.3125 44.117188 " fill-opacity="1" fill-rule="nonzero"/></g><g clip-path="url(#id3)"><path fill="rgb(31.759644%, 35.289001%, 42.349243%)" d="M 21.621094 51.617188 L 17.957031 51.617188 L 15.429688 47.320312 C 14.773438 46.132812 13.9375 45.570312 13.164062 45.570312 L 11.949219 45.570312 L 11.949219 51.605469 L 8.699219 51.605469 L 8.699219 30.273438 L 11.941406 30.273438 L 11.941406 42.628906 L 13.164062 42.628906 C 14.058594 42.628906 14.953125 42.078125 15.570312 40.890625 L 17.632812 36.59375 L 21.269531 36.59375 L 19.195312 41.023438 C 18.253906 42.894531 17.40625 43.632812 16.371094 44.109375 C 17.335938 44.609375 18.121094 45.421875 19.050781 47.136719 Z M 54.160156 42.789062 L 54.160156 51.617188 L 50.914062 51.617188 L 50.914062 42.789062 C 50.914062 40.652344 49.765625 39.390625 47.910156 39.390625 C 46.050781 39.390625 44.878906 40.652344 44.878906 42.789062 L 44.878906 51.617188 L 41.65625 51.617188 L 41.65625 42.789062 C 41.65625 38.574219 43.890625 36.335938 47.910156 36.335938 C 51.929688 36.335938 54.160156 38.574219 54.160156 42.789062 Z M 72.1875 44.109375 C 72.1875 49.109375 69.671875 51.878906 65.539062 51.878906 C 61.015625 51.878906 58.839844 49.109375 58.839844 44.109375 L 58.839844 30.273438 L 62.082031 30.273438 L 62.082031 38.046875 C 63.078125 36.886719 64.519531 36.335938 66.269531 36.335938 C 69.894531 36.335938 72.1875 39.074219 72.1875 44.109375 Z M 68.914062 44.109375 C 68.914062 40.917969 67.765625 39.390625 65.460938 39.390625 C 63.15625 39.390625 62.0625 40.835938 62.0625 43.234375 L 62.0625 44.109375 C 62.0625 47.292969 63.214844 48.824219 65.488281 48.824219 C 67.761719 48.824219 68.914062 47.292969 68.914062 44.109375 Z M 24.242188 44.109375 C 24.242188 39.101562 26.753906 36.335938 30.886719 36.335938 C 35.410156 36.335938 37.585938 39.101562 37.585938 44.109375 L 37.585938 51.617188 L 34.359375 51.617188 L 34.359375 50.164062 C 33.367188 51.324219 31.925781 51.867188 30.175781 51.867188 C 26.539062 51.867188 24.238281 49.136719 24.238281 44.109375 Z M 27.511719 44.109375 C 27.511719 47.292969 28.664062 48.824219 30.964844 48.824219 C 33.265625 48.824219 34.363281 47.375 34.363281 44.976562 L 34.363281 44.109375 C 34.363281 40.917969 33.21875 39.390625 30.9375 39.390625 C 28.660156 39.390625 27.507812 40.917969 27.507812 44.109375 Z M 106.035156 42.789062 L 106.035156 51.617188 L 102.792969 51.617188 L 102.792969 42.789062 C 102.792969 40.652344 101.640625 39.390625 99.78125 39.390625 C 97.921875 39.390625 96.773438 40.652344 96.773438 42.789062 L 96.773438 51.617188 L 93.53125 51.617188 L 93.53125 42.789062 C 93.53125 38.574219 95.765625 36.335938 99.785156 36.335938 C 103.804688 36.335938 106.035156 38.574219 106.035156 42.789062 Z M 75.660156 44.109375 C 75.660156 39.101562 78.167969 36.335938 82.300781 36.335938 C 86.828125 36.335938 89.023438 39.101562 89.023438 44.109375 L 89.023438 51.617188 L 85.78125 51.617188 L 85.78125 50.164062 C 84.785156 51.324219 83.347656 51.878906 81.59375 51.878906 C 77.96875 51.867188 75.667969 49.136719 75.667969 44.109375 Z M 78.929688 44.109375 C 78.929688 47.292969 80.078125 48.824219 82.382812 48.824219 C 84.6875 48.824219 85.78125 47.375 85.78125 44.976562 L 85.78125 44.109375 C 85.78125 40.917969 84.628906 39.390625 82.355469 39.390625 C 80.082031 39.390625 78.9375 40.917969 78.9375 44.109375 Z M 78.929688 44.109375 " fill-opacity="1" fill-rule="nonzero"/></g></svg>