<svg xmlns="http://www.w3.org/2000/svg" xmlns:xlink="http://www.w3.org/1999/xlink" width="220" zoomAndPan="magnify" viewBox="0 0 165 82.499998" height="110" preserveAspectRatio="xMidYMid meet" version="1.0"><defs><clipPath id="d4d2d9031d"><path d="M 0.496094 0 L 164.503906 0 L 164.503906 82.003906 L 0.496094 82.003906 Z M 0.496094 0 " clip-rule="nonzero"/></clipPath><clipPath id="3fff52426d"><path d="M 44 28 L 156.300781 28 L 156.300781 52 L 44 52 Z M 44 28 " clip-rule="nonzero"/></clipPath><clipPath id="182326fe01"><path d="M 8.699219 25.238281 L 36 25.238281 L 36 56 L 8.699219 56 Z M 8.699219 25.238281 " clip-rule="nonzero"/></clipPath></defs><g clip-path="url(#d4d2d9031d)"><path fill="#ffffff" d="M 0.496094 0 L 164.503906 0 L 164.503906 82.003906 L 0.496094 82.003906 Z M 0.496094 0 " fill-opacity="1" fill-rule="nonzero"/></g><g clip-path="url(#3fff52426d)"><path fill="#1f1f1f" d="M 50.304688 46.460938 C 49.214844 46.460938 48.15625 46.304688 47.101562 45.953125 C 46.105469 45.628906 45.195312 45.085938 44.425781 44.371094 L 45.824219 41.960938 C 46.601562 42.5 47.347656 42.910156 48.09375 43.230469 C 48.8125 43.546875 49.527344 43.671875 50.210938 43.671875 C 50.710938 43.671875 51.113281 43.578125 51.394531 43.386719 C 51.675781 43.230469 51.796875 42.945312 51.796875 42.59375 C 51.796875 42.277344 51.644531 41.960938 51.269531 41.769531 C 50.683594 41.484375 50.066406 41.273438 49.433594 41.136719 L 47.253906 40.40625 C 46.664062 40.152344 46.199219 39.902344 45.824219 39.617188 C 45.449219 39.363281 45.171875 39.011719 45.015625 38.664062 C 44.847656 38.265625 44.761719 37.832031 44.765625 37.394531 C 44.746094 36.148438 45.285156 34.960938 46.230469 34.164062 C 46.664062 33.78125 47.222656 33.496094 47.847656 33.277344 C 48.46875 33.054688 49.152344 32.957031 49.871094 32.957031 C 50.832031 32.957031 51.734375 33.085938 52.578125 33.339844 C 53.417969 33.625 54.226562 34.101562 55.003906 34.796875 L 53.480469 37.175781 C 52.875 36.734375 52.230469 36.363281 51.550781 36.066406 C 50.957031 35.8125 50.429688 35.714844 49.871094 35.714844 C 49.464844 35.714844 49.089844 35.78125 48.8125 35.96875 C 48.5 36.128906 48.375 36.414062 48.375 36.792969 C 48.375 37.175781 48.53125 37.429688 48.84375 37.617188 C 49.152344 37.808594 49.777344 38 50.617188 38.21875 C 51.394531 38.421875 52.164062 38.664062 52.917969 38.949219 C 53.539062 39.203125 54.039062 39.488281 54.441406 39.773438 C 55.207031 40.347656 55.632812 41.28125 55.5625 42.246094 C 55.5625 43.546875 55.097656 44.558594 54.132812 45.320312 C 53.199219 46.082031 51.953125 46.460938 50.304688 46.460938 Z M 65.707031 45.542969 C 65.179688 45.765625 64.554688 45.988281 63.871094 46.175781 C 63.1875 46.367188 62.503906 46.492188 61.785156 46.492188 C 61.289062 46.492188 60.851562 46.429688 60.417969 46.304688 C 59.992188 46.179688 59.601562 45.960938 59.265625 45.667969 C 58.953125 45.417969 58.707031 45.035156 58.519531 44.625 C 58.332031 44.179688 58.207031 43.640625 58.207031 43.007812 L 58.207031 36.191406 L 56.589844 36.191406 L 56.589844 33.210938 L 58.238281 33.210938 L 58.238281 29.058594 L 62.097656 29.058594 L 62.097656 33.179688 L 64.710938 33.179688 L 64.710938 36.191406 L 62.097656 36.191406 L 62.097656 41.644531 C 62.097656 42.054688 62.191406 42.375 62.410156 42.59375 C 62.625 42.753906 62.90625 42.847656 63.21875 42.847656 C 63.527344 42.847656 63.839844 42.816406 64.121094 42.691406 C 64.429688 42.59375 64.710938 42.5 64.929688 42.375 L 65.675781 45.542969 Z M 72.988281 46.460938 C 72 46.480469 71.015625 46.296875 70.09375 45.921875 C 68.476562 45.269531 67.207031 43.945312 66.609375 42.277344 C 66 40.621094 66 38.796875 66.609375 37.144531 C 67.207031 35.476562 68.476562 34.148438 70.09375 33.496094 C 70.933594 33.148438 71.898438 32.957031 72.988281 32.957031 C 74.882812 32.867188 76.722656 33.621094 78.027344 35.019531 C 78.621094 35.621094 79.054688 36.351562 79.367188 37.144531 C 80.003906 38.804688 80.003906 40.648438 79.367188 42.308594 C 78.765625 43.957031 77.511719 45.265625 75.914062 45.921875 C 74.984375 46.300781 73.988281 46.484375 72.988281 46.460938 Z M 70.1875 39.742188 C 70.1875 40.757812 70.4375 41.582031 70.964844 42.183594 C 71.527344 42.816406 72.210938 43.132812 73.019531 43.132812 C 73.800781 43.148438 74.546875 42.796875 75.042969 42.183594 C 75.289062 41.867188 75.476562 41.550781 75.632812 41.105469 C 75.789062 40.691406 75.851562 40.21875 75.851562 39.742188 C 75.851562 38.695312 75.570312 37.871094 75.042969 37.269531 C 74.511719 36.636719 73.828125 36.320312 73.019531 36.320312 C 72.242188 36.316406 71.5 36.664062 70.996094 37.269531 C 70.75 37.585938 70.53125 37.902344 70.375 38.347656 C 70.234375 38.796875 70.171875 39.269531 70.1875 39.742188 Z M 89.882812 36.605469 C 88.949219 36.605469 88.078125 36.761719 87.300781 37.078125 C 86.617188 37.316406 86.035156 37.785156 85.652344 38.410156 L 85.652344 46.242188 L 81.761719 46.242188 L 81.761719 33.210938 L 85.339844 33.210938 L 85.339844 35.8125 C 85.777344 34.925781 86.335938 34.226562 87.054688 33.75 C 87.738281 33.242188 88.453125 32.992188 89.230469 32.957031 L 89.636719 32.957031 L 89.882812 32.992188 Z M 91.597656 48.175781 C 92.136719 48.367188 92.703125 48.472656 93.277344 48.492188 C 93.742188 48.492188 94.117188 48.332031 94.394531 48.015625 C 94.644531 47.699219 94.863281 47.066406 95.082031 46.242188 L 90.226562 33.210938 L 94.242188 33.210938 L 97.195312 42.816406 L 99.78125 33.210938 L 103.417969 33.210938 L 98.535156 48.332031 C 97.769531 50.902344 95.199219 52.441406 92.621094 51.882812 C 92.3125 51.820312 91.9375 51.722656 91.597656 51.566406 Z M 112.628906 46.460938 C 111.664062 46.460938 110.792969 46.273438 110.078125 45.828125 C 109.351562 45.421875 108.75 44.816406 108.335938 44.085938 L 108.335938 46.242188 L 104.945312 46.242188 L 104.945312 28.109375 L 108.867188 28.109375 L 108.867188 35.335938 C 109.714844 33.820312 111.320312 32.902344 113.035156 32.957031 C 113.84375 32.957031 114.589844 33.117188 115.273438 33.496094 C 115.960938 33.816406 116.519531 34.320312 117.046875 34.925781 C 118.582031 37.089844 118.996094 39.871094 118.167969 42.40625 C 117.859375 43.230469 117.421875 43.957031 116.894531 44.558594 C 115.800781 45.78125 114.25 46.472656 112.628906 46.460938 Z M 111.542969 43.132812 C 112.804688 43.136719 113.929688 42.320312 114.339844 41.105469 C 114.796875 39.828125 114.574219 38.402344 113.75 37.332031 C 113.265625 36.679688 112.5 36.304688 111.695312 36.320312 C 111.105469 36.320312 110.546875 36.539062 110.015625 36.953125 C 109.519531 37.394531 109.113281 37.933594 108.835938 38.601562 L 108.835938 41.328125 C 109.335938 42.40625 110.402344 43.09375 111.570312 43.101562 Z M 120.503906 28.109375 L 124.390625 28.109375 L 124.390625 41.582031 C 124.390625 42.59375 124.796875 43.070312 125.636719 43.070312 C 126.082031 43.070312 126.519531 42.964844 126.914062 42.753906 L 127.441406 45.703125 C 126.351562 46.1875 125.175781 46.445312 123.988281 46.460938 C 122.867188 46.460938 121.996094 46.144531 121.40625 45.574219 C 120.78125 44.941406 120.472656 44.117188 120.472656 42.976562 L 120.472656 28.109375 Z M 134.785156 46.460938 C 133.792969 46.480469 132.8125 46.296875 131.890625 45.921875 C 130.261719 45.273438 128.984375 43.949219 128.375 42.277344 C 127.476562 39.785156 127.976562 36.992188 129.683594 34.988281 C 130.304688 34.351562 130.988281 33.878906 131.859375 33.496094 C 132.699219 33.148438 133.664062 32.957031 134.753906 32.957031 C 136.648438 32.867188 138.488281 33.621094 139.792969 35.019531 C 140.417969 35.621094 140.820312 36.351562 141.132812 37.144531 C 142.066406 39.632812 141.5625 42.441406 139.824219 44.433594 C 139.234375 45.066406 138.519531 45.574219 137.648438 45.921875 C 136.726562 46.296875 135.742188 46.480469 134.753906 46.460938 Z M 131.953125 39.742188 C 131.953125 40.757812 132.203125 41.582031 132.730469 42.183594 C 133.292969 42.816406 133.976562 43.132812 134.785156 43.132812 C 135.566406 43.144531 136.308594 42.792969 136.808594 42.183594 C 137.054688 41.867188 137.242188 41.550781 137.398438 41.105469 C 137.554688 40.691406 137.617188 40.21875 137.617188 39.742188 C 137.617188 38.695312 137.335938 37.871094 136.808594 37.269531 C 136.277344 36.636719 135.59375 36.320312 134.785156 36.320312 C 134.007812 36.316406 133.265625 36.664062 132.761719 37.269531 C 132.511719 37.585938 132.296875 37.902344 132.140625 38.347656 C 131.984375 38.792969 131.953125 39.234375 131.953125 39.742188 Z M 152.148438 46.242188 L 148.816406 40.976562 L 147.449219 42.4375 L 147.449219 46.242188 L 143.558594 46.242188 L 143.558594 28.109375 L 147.449219 28.109375 L 147.449219 38.601562 L 151.773438 33.210938 L 155.914062 33.210938 L 151.308594 38.824219 L 156.285156 46.242188 Z M 152.148438 46.242188 " fill-opacity="1" fill-rule="nonzero"/></g><g clip-path="url(#182326fe01)"><path fill="#1f1f1f" d="M 8.714844 27.671875 C 8.714844 26.328125 9.8125 25.238281 11.164062 25.238281 L 33.226562 25.238281 C 34.582031 25.238281 35.679688 26.328125 35.679688 27.671875 L 35.679688 49.585938 C 35.679688 50.933594 34.582031 52.023438 33.226562 52.023438 L 18.933594 52.023438 L 15.269531 55.023438 C 14.796875 55.414062 14.078125 55.078125 14.078125 54.464844 L 14.078125 52.023438 L 11.164062 52.023438 C 9.8125 52.023438 8.714844 50.933594 8.714844 49.585938 Z M 14.078125 29.664062 L 25.859375 29.664062 C 28.40625 29.664062 30.46875 31.710938 30.46875 34.242188 C 30.46875 36.265625 29.144531 37.984375 27.308594 38.589844 C 29.453125 38.976562 31.082031 40.84375 31.082031 43.089844 C 31.082031 45.617188 29.019531 47.667969 26.472656 47.667969 L 14.078125 47.667969 Z M 23.878906 33.78125 L 18.367188 33.78125 L 18.367188 36.527344 L 23.878906 36.527344 C 24.640625 36.527344 25.257812 35.914062 25.257812 35.15625 C 25.257812 34.398438 24.640625 33.78125 23.878906 33.78125 Z M 18.367188 39.886719 L 24.335938 39.886719 C 25.183594 39.886719 25.871094 40.570312 25.871094 41.410156 C 25.871094 42.253906 25.183594 42.9375 24.335938 42.9375 L 18.367188 42.9375 Z M 18.367188 39.886719 " fill-opacity="1" fill-rule="evenodd"/></g></svg>